<?xml version="1.0" standalone="no"?>
<!DOCTYPE svg PUBLIC "-//W3C//DTD SVG 20010904//EN"
 "http://www.w3.org/TR/2001/REC-SVG-20010904/DTD/svg10.dtd">
<svg version="1.0" xmlns="http://www.w3.org/2000/svg"
 width="700.000000pt" height="700.000000pt" viewBox="0 0 700.000000 700.000000"
 preserveAspectRatio="xMidYMid meet">
<metadata>
Created by potrace 1.14, written by Peter Selinger 2001-2017
</metadata>
<g transform="translate(0.000000,700.000000) scale(0.100000,-0.100000)"
fill="#000000" stroke="none">
<path d="M703 6990 c-168 -25 -320 -99 -447 -219 -106 -102 -175 -215 -223
-368 l-28 -88 0 -2815 0 -2815 28 -88 c92 -293 297 -492 587 -569 l85 -23
2795 0 2795 0 85 23 c299 79 513 293 592 592 l23 85 0 2795 0 2795 -23 85
c-42 157 -116 284 -228 391 -104 98 -196 151 -341 196 l-88 28 -2780 1 c-1529
1 -2803 -2 -2832 -6z m1895 -1563 l2 -1027 -1027 2 -1028 3 0 910 c0 869 1
912 19 959 36 92 117 159 215 176 25 4 444 7 931 6 l885 -1 3 -1028z m3852
-3119 c0 -1540 -1 -1553 -21 -1598 -27 -60 -74 -107 -134 -136 l-50 -24 -1552
0 -1553 0 0 1648 c0 907 3 1652 7 1655 3 4 748 7 1655 7 l1648 0 0 -1552z
m-3860 -108 l0 -1650 -922 2 -923 3 -41 22 c-53 28 -99 74 -127 127 l-22 41
-3 1553 -2 1552 1020 0 1020 0 0 -1650z"/>
</g>
</svg>
